<svg xmlns="http://www.w3.org/2000/svg" width="2017" height="1490" viewBox="0 0 2017 1490">
  <g id="Group_186" data-name="Group 186" transform="translate(0 482)">
    <g id="Oval" transform="translate(2017 513) rotate(180)" fill="none" stroke-miterlimit="10">
      <path d="M504.5,995C783.128,995,1009,772.262,1009,497.5c0-149.383-205.548-93.93-260.686-221.313C674.648,106,631.643,0,504.5,0,225.872,0,0,222.738,0,497.5S225.872,995,504.5,995Z" stroke="none"/>
      <path d="M 504.5 992.5999755859375 C 521.6292114257812 992.5999755859375 538.9036254882812 991.7398681640625 555.8430786132812 990.04345703125 C 572.5366821289062 988.37158203125 589.310791015625 985.8470458984375 605.6995849609375 982.5399780273438 C 621.8759765625 979.2757568359375 638.0657348632812 975.170654296875 653.8192138671875 970.3389282226562 C 669.3961181640625 965.5612182617188 684.9169311523438 959.9593505859375 699.9502563476562 953.6889038085938 C 714.8447875976562 947.4765625 729.6119995117188 940.4614868164062 743.84130859375 932.8388061523438 C 757.9697265625 925.2703857421875 771.8982543945312 916.926025390625 785.2401123046875 908.0374755859375 C 798.517578125 899.19189453125 811.5225219726562 889.6018676757812 823.8939819335938 879.5337524414062 C 836.2350463867188 869.4902954101562 848.2316284179688 858.7384033203125 859.55029296875 847.57666015625 C 870.8687744140625 836.4152221679688 881.771728515625 824.58544921875 891.9562377929688 812.4158935546875 C 902.1654663085938 800.216796875 911.889892578125 787.3929443359375 920.8594970703125 774.300537109375 C 929.8722534179688 761.1449584960938 938.3331909179688 747.4109497070312 946.0074462890625 733.47998046875 C 953.7363891601562 719.44970703125 960.8491821289062 704.8893432617188 967.1482543945312 690.2033081054688 C 973.505859375 675.3807983398438 979.1857299804688 660.0777587890625 984.0298461914062 644.7193603515625 C 988.9287719726562 629.1873168945312 993.0908203125 613.2250366210938 996.400390625 597.2760009765625 C 999.7534790039062 581.1176147460938 1002.312927246094 564.5794677734375 1004.007995605469 548.1206665039062 C 1005.727844238281 531.4194946289062 1006.599975585938 514.3882446289062 1006.599975585938 497.5 C 1006.599975585938 487.8367919921875 1005.708129882812 478.7239990234375 1003.94921875 470.414794921875 C 1002.275451660156 462.5079956054688 999.7584228515625 455.0580139160156 996.4678955078125 448.271728515625 C 993.3534545898438 441.8486633300781 989.4297485351562 435.7825317382812 984.8057250976562 430.2416076660156 C 980.462158203125 425.0368041992188 975.3236083984375 420.085205078125 969.532958984375 415.524658203125 C 964.1026611328125 411.2477416992188 958.111572265625 407.2837219238281 951.2174682617188 403.4058532714844 C 945.0345458984375 399.9280090332031 938.250244140625 396.5938720703125 930.4771728515625 393.2127990722656 C 915.9542846679688 386.8958740234375 900.6026611328125 381.5440063476562 884.3497314453125 375.8777465820312 C 857.1740112304688 366.4037475585938 829.0730590820312 356.6070556640625 804.6126708984375 341.8089294433594 C 798.2647705078125 337.9686584472656 792.3169555664062 333.8738708496094 786.9340209960938 329.6385192871094 C 781.1511840820312 325.0885314941406 775.7889404296875 320.1951904296875 770.9962768554688 315.0942687988281 C 765.9108276367188 309.6817321777344 761.2827758789062 303.8409423828125 757.2409057617188 297.734130859375 C 752.9927978515625 291.3156127929688 749.248291015625 284.3868103027344 746.111572265625 277.14013671875 C 744.5036010742188 273.4252014160156 742.91015625 269.7406616210938 741.3301391601562 266.0871887207031 C 724.002685546875 226.0220031738281 707.6361083984375 188.1786651611328 691.6502685546875 155.7013397216797 C 674.044921875 119.9338684082031 658.3329467773438 93.54106903076172 642.2034912109375 72.64173126220703 C 637.7833251953125 66.91439819335938 633.25146484375 61.51173400878906 628.7335815429688 56.58373260498047 C 624.0985107421875 51.52799987792969 619.316162109375 46.79453277587891 614.5189208984375 42.51506805419922 C 609.6170654296875 38.14199829101562 604.5322875976562 34.09333419799805 599.4058837890625 30.48146629333496 C 594.1832275390625 26.80173301696777 588.7421264648438 23.45173263549805 583.2337036132812 20.52466583251953 C 577.6341552734375 17.5492000579834 571.7797241210938 14.91213321685791 565.8330688476562 12.68680000305176 C 559.7985229492188 10.42840003967285 553.4716186523438 8.520133018493652 547.0280151367188 7.014800071716309 C 540.4995727539062 5.489733219146729 533.6405029296875 4.328933238983154 526.6411743164062 3.564800024032593 C 519.5615844726562 2.791866779327393 512.1122436523438 2.400000095367432 504.5 2.400000095367432 C 487.3707885742188 2.400000095367432 470.0964050292969 3.260133266448975 453.1569213867188 4.956533432006836 C 436.4633483886719 6.628399848937988 419.689208984375 9.152933120727539 403.3004150390625 12.46000003814697 C 387.1239929199219 15.72426700592041 370.9342651367188 19.8293342590332 355.1809387207031 24.66106605529785 C 339.60400390625 29.43880081176758 324.0831909179688 35.04066848754883 309.0497436523438 41.31106567382812 C 294.1552124023438 47.52346801757812 279.3881225585938 54.53853225708008 265.1586608886719 62.16120147705078 C 251.0303955078125 69.72959899902344 237.1018676757812 78.07399749755859 223.7598724365234 86.96253204345703 C 210.4825286865234 95.80813598632812 197.4774627685547 105.3981323242188 185.1061401367188 115.4662704467773 C 172.7650604248047 125.5097351074219 160.7685394287109 136.2615966796875 149.4498596191406 147.42333984375 C 138.1311950683594 158.5847930908203 127.2282638549805 170.4145355224609 117.0438690185547 182.5841369628906 C 106.8345336914062 194.783203125 97.11013031005859 207.6070709228516 88.14066314697266 220.699462890625 C 79.12786865234375 233.8550720214844 70.66680145263672 247.5890655517578 62.99253463745117 261.5199890136719 C 55.26359939575195 275.5502624511719 48.15079879760742 290.1106567382812 41.85173416137695 304.7966613769531 C 35.49413299560547 319.6192016601562 29.81439971923828 334.9222717285156 24.97013282775879 350.2806701660156 C 20.07119941711426 365.8126525878906 15.90919971466064 381.7749328613281 12.59959983825684 397.7239990234375 C 9.246533393859863 413.8823852539062 6.687066555023193 430.4205322265625 4.992000102996826 446.8793334960938 C 3.272133350372314 463.5805358886719 2.400000095367432 480.6117248535156 2.400000095367432 497.5 C 2.400000095367432 514.3882446289062 3.272133350372314 531.4194946289062 4.992000102996826 548.1206665039062 C 6.687066555023193 564.5794677734375 9.246533393859863 581.1176147460938 12.59959983825684 597.2760009765625 C 15.90919971466064 613.2250366210938 20.07119941711426 629.1873168945312 24.97013282775879 644.7193603515625 C 29.81439971923828 660.0777587890625 35.49413299560547 675.3807983398438 41.85173416137695 690.2033081054688 C 48.15079879760742 704.8893432617188 55.26359939575195 719.44970703125 62.99253463745117 733.47998046875 C 70.66680145263672 747.4109497070312 79.12786865234375 761.1449584960938 88.14066314697266 774.300537109375 C 97.11013031005859 787.3929443359375 106.8345336914062 800.216796875 117.0438690185547 812.4158935546875 C 127.2282638549805 824.58544921875 138.1311950683594 836.4152221679688 149.4498596191406 847.57666015625 C 160.7685394287109 858.7384033203125 172.7650604248047 869.4902954101562 185.1061401367188 879.5337524414062 C 197.4774627685547 889.6018676757812 210.4825286865234 899.19189453125 223.7598724365234 908.0374755859375 C 237.1018676757812 916.926025390625 251.0303955078125 925.2703857421875 265.1586608886719 932.8388061523438 C 279.3881225585938 940.4614868164062 294.1552124023438 947.4765625 309.0497436523438 953.6889038085938 C 324.0831909179688 959.9593505859375 339.60400390625 965.5612182617188 355.1809387207031 970.3389282226562 C 370.9342651367188 975.170654296875 387.1239929199219 979.2757568359375 403.3004150390625 982.5399780273438 C 419.689208984375 985.8470458984375 436.4633483886719 988.37158203125 453.1569213867188 990.04345703125 C 470.0964050292969 991.7398681640625 487.3707885742188 992.5999755859375 504.5 992.5999755859375 M 504.5 995 C 225.8724060058594 995 0 772.2615966796875 0 497.5 C 0 222.7384033203125 225.8724060058594 0 504.5 0 C 631.6426391601562 0 674.6483764648438 106 748.3141479492188 276.1867980957031 C 803.4521484375 403.5697326660156 1009 348.116943359375 1009 497.5 C 1009 772.2615966796875 783.1277465820312 995 504.5 995 Z" stroke="none" fill="#5d72e4"/>
    </g>
    <path id="Oval-2" data-name="Oval" d="M420.5,829C652.736,829,841,643.422,841,414.5c0-124.461-129.172-108.412-217.281-184.391C549.768,166.34,526.473,0,420.5,0,188.264,0,0,185.578,0,414.5S188.264,829,420.5,829Z" transform="translate(1861 414) rotate(180)" fill="#f6ddd3"/>
    <g id="Group_185" data-name="Group 185">
      <path id="Union_5" data-name="Union 5" d="M0,1008V0H1440V1008Z" fill="none"/>
    </g>
  </g>
</svg>
