<svg xmlns="http://www.w3.org/2000/svg" xmlns:xlink="http://www.w3.org/1999/xlink" width="80" height="80" viewBox="0 0 80 80">
  <defs>
    <linearGradient id="linear-gradient" x1="0.5" x2="0.5" y2="1" gradientUnits="objectBoundingBox">
      <stop offset="0" stop-color="#1f2c5f" stop-opacity="0.502"/>
      <stop offset="1" stop-color="#f9764a" stop-opacity="0.502"/>
    </linearGradient>
  </defs>
  <g id="Group_183" data-name="Group 183" transform="translate(-135 -3104)">
    <g id="Oval" transform="translate(1490 8593)">
      <circle id="Oval-2" data-name="Oval" cx="40" cy="40" r="40" transform="translate(-1355 -5489)" fill="#f87853"/>
      <circle id="Oval-3" data-name="Oval" cx="40" cy="40" r="40" transform="translate(-1355 -5489)" fill="url(#linear-gradient)"/>
    </g>
    <path id="Shape" d="M20,27.5h0a2.5,2.5,0,1,0-5,0h0a7.5,7.5,0,0,1-15,0c0-.043,0-.086,0-.129q0-.029,0-.059V5.5A5.5,5.5,0,0,1,5.5,0h2a1.5,1.5,0,1,1,0,3h-2A2.5,2.5,0,0,0,3,5.5v16a7.492,7.492,0,0,1,10.8,1.928,5.5,5.5,0,0,1,7.4,0A7.492,7.492,0,0,1,32,21.5V5.5A2.5,2.5,0,0,0,29.5,3h-2a1.5,1.5,0,1,1,0-3h2A5.5,5.5,0,0,1,35,5.5V27.311q0,.03,0,.059c0,.043,0,.086,0,.129a7.5,7.5,0,1,1-15,0ZM27.5,32A4.5,4.5,0,1,0,23,27.435c0,.022,0,.044,0,.066h0A4.505,4.505,0,0,0,27.5,32ZM3,27.5A4.5,4.5,0,1,0,7.5,23,4.505,4.505,0,0,0,3,27.5Z" transform="translate(157 3126)" fill="#fff"/>
  </g>
</svg>
