<svg xmlns="http://www.w3.org/2000/svg" width="306" height="156" viewBox="0 0 306 156">
  <g id="Group_137" data-name="Group 137" transform="translate(-137.999 -4347)">
    <g id="Group_135" data-name="Group 135" transform="translate(138 4450.62)">
      <path id="Path_1" data-name="Path 1" d="M168.966,20a11.235,11.235,0,0,1-4.518-.792,6.478,6.478,0,0,1-2.722-2.069,4.879,4.879,0,0,1-.98-2.722.561.561,0,0,1,.177-.4.569.569,0,0,1,.422-.181h3.429a1.034,1.034,0,0,1,.585.139,1.514,1.514,0,0,1,.368.361,3.268,3.268,0,0,0,.612.806,2.861,2.861,0,0,0,1.034.625,4.642,4.642,0,0,0,1.593.236,4.569,4.569,0,0,0,2.382-.5,1.537,1.537,0,0,0,.8-1.362,1.324,1.324,0,0,0-.435-1.014,3.9,3.9,0,0,0-1.4-.722,24.155,24.155,0,0,0-2.571-.653,15.544,15.544,0,0,1-3.525-1.153A5.411,5.411,0,0,1,162,8.736a5.1,5.1,0,0,1-.762-2.875,5.13,5.13,0,0,1,.939-3.028A6.2,6.2,0,0,1,164.8.751a9.787,9.787,0,0,1,4-.751,10,10,0,0,1,3.307.5,7.478,7.478,0,0,1,2.408,1.334A6.264,6.264,0,0,1,176,3.6a4.078,4.078,0,0,1,.531,1.819.588.588,0,0,1-.164.4.528.528,0,0,1-.408.18h-3.592a1.119,1.119,0,0,1-.517-.111,1.008,1.008,0,0,1-.381-.361,1.9,1.9,0,0,0-.857-1.069A3.227,3.227,0,0,0,168.8,4a3.426,3.426,0,0,0-1.865.431,1.461,1.461,0,0,0-.666,1.319,1.425,1.425,0,0,0,.367.972,2.936,2.936,0,0,0,1.225.722,20.781,20.781,0,0,0,2.354.639,17.438,17.438,0,0,1,4,1.181,5.05,5.05,0,0,1,2.232,1.833,5.209,5.209,0,0,1,.707,2.819,5.234,5.234,0,0,1-1.047,3.264,6.521,6.521,0,0,1-2.9,2.1,11.624,11.624,0,0,1-4.246.722" transform="translate(-160.747 0)"/>
      <path id="Path_2" data-name="Path 2" d="M202.689,19.974a.539.539,0,0,1-.395-.181.56.56,0,0,1-.177-.4,1.064,1.064,0,0,1,.027-.25L208.54,1.3a1.111,1.111,0,0,1,.34-.542A1.031,1.031,0,0,1,209.6.517h4.028a1.033,1.033,0,0,1,.721.237,1.12,1.12,0,0,1,.34.542l6.369,17.846a.566.566,0,0,1-.122.653.57.57,0,0,1-.422.181h-3.348a.822.822,0,0,1-.613-.208,1.041,1.041,0,0,1-.259-.376l-1.062-2.835h-7.267l-1.034,2.835a1.114,1.114,0,0,1-.245.376.855.855,0,0,1-.653.208Zm6.4-7.422h5.062l-2.558-7.338Z" transform="translate(-180.29 -0.246)"/>
      <path id="Path_3" data-name="Path 3" d="M257.7,20a10.346,10.346,0,0,1-4.423-.861,6.5,6.5,0,0,1-2.857-2.528,8.522,8.522,0,0,1-1.129-4.139q-.028-1.139-.027-2.445t.027-2.5a8.408,8.408,0,0,1,1.143-4.1A6.632,6.632,0,0,1,253.322.875,10.17,10.17,0,0,1,257.7,0a11.492,11.492,0,0,1,3.32.459,8.252,8.252,0,0,1,2.668,1.333A6.268,6.268,0,0,1,265.474,3.9a6.235,6.235,0,0,1,.666,2.792.472.472,0,0,1-.149.416.594.594,0,0,1-.422.167h-3.674a.852.852,0,0,1-.545-.152,1.209,1.209,0,0,1-.327-.57,3.2,3.2,0,0,0-1.238-2.014A3.872,3.872,0,0,0,257.676,4a3.251,3.251,0,0,0-2.367.847,4.064,4.064,0,0,0-.953,2.82q-.082,2.278,0,4.666a4.062,4.062,0,0,0,.953,2.819,3.249,3.249,0,0,0,2.367.847,3.864,3.864,0,0,0,2.123-.556,3.121,3.121,0,0,0,1.224-2,1.011,1.011,0,0,1,.313-.569.912.912,0,0,1,.558-.153h3.674a.6.6,0,0,1,.422.167.474.474,0,0,1,.149.417,6.086,6.086,0,0,1-2.449,4.9,8.252,8.252,0,0,1-2.668,1.333A11.474,11.474,0,0,1,257.7,20" transform="translate(-202.564 0)"/>
      <path id="Path_4" data-name="Path 4" d="M282.9,19.974a.539.539,0,0,1-.395-.181.56.56,0,0,1-.177-.4,1.066,1.066,0,0,1,.027-.25l6.4-17.846a1.111,1.111,0,0,1,.34-.542,1.031,1.031,0,0,1,.721-.237h4.028a1.033,1.033,0,0,1,.721.237,1.119,1.119,0,0,1,.34.542l6.369,17.846a.559.559,0,0,1,.054.25.611.611,0,0,1-.6.584h-3.348a.822.822,0,0,1-.613-.208,1.041,1.041,0,0,1-.258-.376l-1.062-2.835h-7.267l-1.034,2.835a1.114,1.114,0,0,1-.245.376.855.855,0,0,1-.653.208Zm6.4-7.422h5.062L291.8,5.215Z" transform="translate(-218.185 -0.246)"/>
      <path id="Path_5" data-name="Path 5" d="M322.373,19.974a.654.654,0,0,1-.49-.195.686.686,0,0,1-.19-.5V1.212a.687.687,0,0,1,.19-.5.656.656,0,0,1,.49-.194h7.621a10.034,10.034,0,0,1,3.933.709,5.721,5.721,0,0,1,2.613,2.126,6.363,6.363,0,0,1,.939,3.586,6.169,6.169,0,0,1-.939,3.529,5.526,5.526,0,0,1-2.613,2.057,10.6,10.6,0,0,1-3.933.667h-3.239v6.087a.662.662,0,0,1-.2.5.7.7,0,0,1-.5.195Zm4.3-10.619h3.185a2.718,2.718,0,0,0,1.864-.612,2.353,2.353,0,0,0,.694-1.862,2.7,2.7,0,0,0-.6-1.779,2.41,2.41,0,0,0-1.959-.722h-3.185Z" transform="translate(-236.779 -0.246)"/>
      <path id="Path_6" data-name="Path 6" d="M356.522,19.974a.655.655,0,0,1-.49-.195.687.687,0,0,1-.19-.5V1.212a.687.687,0,0,1,.19-.5.657.657,0,0,1,.49-.194h3.647a.656.656,0,0,1,.49.194.688.688,0,0,1,.19.5V19.279a.687.687,0,0,1-.19.5.654.654,0,0,1-.49.195Z" transform="translate(-252.911 -0.246)"/>
      <path id="Path_7" data-name="Path 7" d="M375.51,19.974a.655.655,0,0,1-.49-.195.685.685,0,0,1-.19-.5V4.881h-4.844a.633.633,0,0,1-.49-.208.7.7,0,0,1-.191-.487V1.212a.684.684,0,0,1,.191-.5.655.655,0,0,1,.49-.194h14.642a.658.658,0,0,1,.49.194.688.688,0,0,1,.19.5V4.186a.7.7,0,0,1-.19.487.636.636,0,0,1-.49.208h-4.844v14.4a.685.685,0,0,1-.19.5.656.656,0,0,1-.49.195Z" transform="translate(-259.271 -0.246)"/>
      <path id="Path_8" data-name="Path 8" d="M397.371,19.974a.539.539,0,0,1-.395-.181.56.56,0,0,1-.177-.4,1.064,1.064,0,0,1,.027-.25l6.4-17.846a1.111,1.111,0,0,1,.34-.542,1.031,1.031,0,0,1,.721-.237h4.028a1.032,1.032,0,0,1,.721.237,1.12,1.12,0,0,1,.34.542l6.369,17.846a.566.566,0,0,1-.122.653.57.57,0,0,1-.422.181H411.85a.822.822,0,0,1-.613-.208,1.042,1.042,0,0,1-.259-.376l-1.061-2.835h-7.266l-1.034,2.835a1.114,1.114,0,0,1-.245.376.855.855,0,0,1-.653.208Zm6.4-7.422h5.062L406.27,5.215Z" transform="translate(-272.26 -0.246)"/>
      <path id="Path_9" data-name="Path 9" d="M436.839,19.974a.655.655,0,0,1-.49-.195.687.687,0,0,1-.19-.5V1.212a.687.687,0,0,1,.19-.5.657.657,0,0,1,.49-.194h3.593a.67.67,0,0,1,.476.194.662.662,0,0,1,.2.5V15.777h8.219a.677.677,0,0,1,.5.209.7.7,0,0,1,.2.514v2.779a.659.659,0,0,1-.2.5.7.7,0,0,1-.5.195Z" transform="translate(-290.854 -0.246)"/>
    </g>
    <g id="Group_134" data-name="Group 134" transform="translate(138 4483)">
      <path id="Path_10" data-name="Path 10" d="M164.365,81.876a.59.59,0,0,1-.463-.181.658.658,0,0,1-.164-.459V63.058a.655.655,0,0,1,.164-.458.59.59,0,0,1,.463-.181h1.442a.6.6,0,0,1,.45.181.628.628,0,0,1,.177.458V81.237a.631.631,0,0,1-.177.459.6.6,0,0,1-.45.181Z" transform="translate(-163.739 -62.148)"/>
      <path id="Path_11" data-name="Path 11" d="M178.963,81.876a.59.59,0,0,1-.463-.181.658.658,0,0,1-.164-.459V63.086a.7.7,0,0,1,.164-.486.59.59,0,0,1,.463-.181h1.251a.7.7,0,0,1,.681.389l9.036,14.177v-13.9a.7.7,0,0,1,.164-.486.591.591,0,0,1,.463-.181h1.306a.636.636,0,0,1,.476.181.665.665,0,0,1,.177.486V81.209a.679.679,0,0,1-.177.473.581.581,0,0,1-.449.195h-1.307a.571.571,0,0,1-.448-.167c-.1-.111-.168-.185-.2-.223L180.923,67.45V81.237a.613.613,0,0,1-.653.64Z" transform="translate(-170.635 -62.148)"/>
      <path id="Path_12" data-name="Path 12" d="M219.68,81.9a9.52,9.52,0,0,1-3.973-.736,6.08,6.08,0,0,1-2.463-1.916,4.533,4.533,0,0,1-.912-2.514.564.564,0,0,1,.177-.4.572.572,0,0,1,.422-.18h1.388a.657.657,0,0,1,.49.167.834.834,0,0,1,.217.389,3.086,3.086,0,0,0,.666,1.319,3.959,3.959,0,0,0,1.5,1.083,6.139,6.139,0,0,0,2.49.431,5.648,5.648,0,0,0,3.443-.847,2.71,2.71,0,0,0,1.1-2.264,2.148,2.148,0,0,0-.585-1.57,5.128,5.128,0,0,0-1.783-1.069q-1.2-.472-3.1-1.028a17.664,17.664,0,0,1-3.293-1.278,4.949,4.949,0,0,1-1.946-1.722,4.87,4.87,0,0,1-.639-2.611,4.711,4.711,0,0,1,.789-2.68,5.412,5.412,0,0,1,2.272-1.875,8.468,8.468,0,0,1,3.606-.695,8.668,8.668,0,0,1,2.953.459,6.3,6.3,0,0,1,2.109,1.222,5.6,5.6,0,0,1,1.279,1.639,4.135,4.135,0,0,1,.463,1.708.617.617,0,0,1-.136.375.511.511,0,0,1-.436.181h-1.442a.822.822,0,0,1-.395-.111.722.722,0,0,1-.313-.417,2.811,2.811,0,0,0-1.252-1.916,4.762,4.762,0,0,0-2.83-.778,5.317,5.317,0,0,0-2.871.695,2.666,2.666,0,0,0-.586,3.736,4.214,4.214,0,0,0,1.633,1.1,27.7,27.7,0,0,0,2.912,1,21.4,21.4,0,0,1,3.565,1.292,5.026,5.026,0,0,1,2.055,1.694,4.644,4.644,0,0,1,.667,2.6,4.945,4.945,0,0,1-.9,2.986,5.614,5.614,0,0,1-2.518,1.889,10.2,10.2,0,0,1-3.824.653" transform="translate(-186.695 -61.902)"/>
      <path id="Path_13" data-name="Path 13" d="M254.293,82.147a8.618,8.618,0,0,1-3.933-.833,5.7,5.7,0,0,1-2.531-2.543,9.567,9.567,0,0,1-.884-4.4V63.085a.7.7,0,0,1,.164-.486.59.59,0,0,1,.463-.18h1.388a.635.635,0,0,1,.476.18.663.663,0,0,1,.177.486V74.422a5.642,5.642,0,0,0,1.252,4.03,5.14,5.14,0,0,0,6.845,0,5.6,5.6,0,0,0,1.266-4.03V63.085a.663.663,0,0,1,.177-.486.6.6,0,0,1,.45-.18h1.414a.6.6,0,0,1,.45.18.666.666,0,0,1,.177.486V74.368a9.567,9.567,0,0,1-.884,4.4,5.72,5.72,0,0,1-2.518,2.543,8.6,8.6,0,0,1-3.946.833" transform="translate(-203.046 -62.148)"/>
      <path id="Path_14" data-name="Path 14" d="M284.557,81.876a.59.59,0,0,1-.463-.181.658.658,0,0,1-.164-.459V63.086a.7.7,0,0,1,.164-.487.592.592,0,0,1,.463-.18H291.2a7.456,7.456,0,0,1,4.871,1.473,5.315,5.315,0,0,1,1.8,4.364,5.523,5.523,0,0,1-1.047,3.489,5.427,5.427,0,0,1-2.844,1.876l4.191,7.394a.709.709,0,0,1,.082.307.517.517,0,0,1-.177.389.562.562,0,0,1-.394.167h-1.306a.857.857,0,0,1-.681-.25,4.551,4.551,0,0,1-.38-.5l-3.947-7.06H286.6v7.171a.613.613,0,0,1-.653.64ZM286.6,71.7h4.491a4.544,4.544,0,0,0,3.048-.876,3.257,3.257,0,0,0,1.007-2.6,3.291,3.291,0,0,0-.993-2.585,4.485,4.485,0,0,0-3.062-.889H286.6Z" transform="translate(-220.651 -62.148)"/>
      <path id="Path_15" data-name="Path 15" d="M315.323,81.877a.519.519,0,0,1-.381-.167.538.538,0,0,1-.163-.389,1.891,1.891,0,0,1,.027-.306l6.75-17.984a1.115,1.115,0,0,1,.3-.445.846.846,0,0,1,.571-.167h1.851a.857.857,0,0,1,.558.167,1.064,1.064,0,0,1,.313.445l6.723,17.984a1,1,0,0,1,.054.306.536.536,0,0,1-.164.389.517.517,0,0,1-.38.167h-1.388a.613.613,0,0,1-.477-.167,1.035,1.035,0,0,1-.2-.306l-1.5-3.947h-8.927l-1.5,3.947a.645.645,0,0,1-.19.306.658.658,0,0,1-.49.167Zm4.355-6.811h7.348L323.351,65.2Z" transform="translate(-235.26 -62.148)"/>
      <path id="Path_16" data-name="Path 16" d="M353.939,81.876a.59.59,0,0,1-.463-.181.658.658,0,0,1-.164-.459V63.086a.7.7,0,0,1,.164-.486.59.59,0,0,1,.463-.181h1.251a.7.7,0,0,1,.681.389l9.036,14.177v-13.9a.7.7,0,0,1,.164-.486.591.591,0,0,1,.463-.181h1.306a.636.636,0,0,1,.476.181.665.665,0,0,1,.177.486V81.209a.679.679,0,0,1-.177.473.581.581,0,0,1-.449.195H365.56a.571.571,0,0,1-.448-.167c-.1-.111-.168-.185-.2-.223L355.9,67.45V81.237a.613.613,0,0,1-.653.64Z" transform="translate(-253.505 -62.148)"/>
      <path id="Path_17" data-name="Path 17" d="M395.829,81.9a8.243,8.243,0,0,1-4.15-.944,6.126,6.126,0,0,1-2.491-2.639,9.544,9.544,0,0,1-.925-3.944q-.027-1.139-.027-2.445t.027-2.5a9.541,9.541,0,0,1,.925-3.944,6.129,6.129,0,0,1,2.491-2.64,8.254,8.254,0,0,1,4.15-.944,9.409,9.409,0,0,1,3.293.528,6.856,6.856,0,0,1,2.354,1.417,6.2,6.2,0,0,1,1.973,4.25.472.472,0,0,1-.15.417.592.592,0,0,1-.422.166h-1.5a.661.661,0,0,1-.422-.138.856.856,0,0,1-.258-.5,4.412,4.412,0,0,0-1.728-2.972,5.8,5.8,0,0,0-3.171-.806,4.7,4.7,0,0,0-3.456,1.264,5.826,5.826,0,0,0-1.388,4.042q-.082,2.278,0,4.666a5.826,5.826,0,0,0,1.388,4.042,4.7,4.7,0,0,0,3.456,1.263,5.8,5.8,0,0,0,3.171-.806,4.411,4.411,0,0,0,1.728-2.972.858.858,0,0,1,.258-.5.665.665,0,0,1,.422-.139h1.5a.6.6,0,0,1,.422.167.473.473,0,0,1,.15.417,6.2,6.2,0,0,1-1.973,4.25,6.873,6.873,0,0,1-2.354,1.417,9.423,9.423,0,0,1-3.293.527" transform="translate(-270.042 -61.902)"/>
      <path id="Path_18" data-name="Path 18" d="M425.125,81.876a.59.59,0,0,1-.463-.181.658.658,0,0,1-.164-.459V63.086a.7.7,0,0,1,.164-.486.59.59,0,0,1,.463-.181h11.24a.591.591,0,0,1,.463.181.7.7,0,0,1,.163.486v1.057a.648.648,0,0,1-.163.473.619.619,0,0,1-.463.167h-9.253v6.087h8.655a.6.6,0,0,1,.463.181.7.7,0,0,1,.163.487v1.028a.658.658,0,0,1-.163.459.591.591,0,0,1-.463.181h-8.655v6.31h9.471a.619.619,0,0,1,.463.167.646.646,0,0,1,.163.473v1.084a.658.658,0,0,1-.163.459.591.591,0,0,1-.463.181Z" transform="translate(-287.211 -62.148)"/>
      <path id="Path_19" data-name="Path 19" d="M474.456,81.9a9.52,9.52,0,0,1-3.973-.736,6.08,6.08,0,0,1-2.463-1.916,4.533,4.533,0,0,1-.912-2.514.564.564,0,0,1,.177-.4.572.572,0,0,1,.422-.18h1.388a.658.658,0,0,1,.49.167.834.834,0,0,1,.217.389,3.087,3.087,0,0,0,.666,1.319,3.959,3.959,0,0,0,1.5,1.083,6.139,6.139,0,0,0,2.49.431,5.647,5.647,0,0,0,3.443-.847A2.71,2.71,0,0,0,479,76.43a2.148,2.148,0,0,0-.585-1.57,5.128,5.128,0,0,0-1.783-1.069q-1.2-.472-3.1-1.028a17.664,17.664,0,0,1-3.293-1.278,4.949,4.949,0,0,1-1.946-1.722,4.87,4.87,0,0,1-.639-2.611,4.711,4.711,0,0,1,.789-2.68,5.412,5.412,0,0,1,2.272-1.875,8.469,8.469,0,0,1,3.606-.695,8.668,8.668,0,0,1,2.953.459,6.294,6.294,0,0,1,2.109,1.222,5.6,5.6,0,0,1,1.279,1.639,4.136,4.136,0,0,1,.463,1.708.617.617,0,0,1-.136.375.511.511,0,0,1-.436.181H479.11a.822.822,0,0,1-.395-.111.721.721,0,0,1-.313-.417,2.812,2.812,0,0,0-1.252-1.916,4.762,4.762,0,0,0-2.83-.778,5.317,5.317,0,0,0-2.871.695,2.666,2.666,0,0,0-.586,3.736,4.215,4.215,0,0,0,1.633,1.1,27.7,27.7,0,0,0,2.912,1,21.4,21.4,0,0,1,3.565,1.292,5.026,5.026,0,0,1,2.055,1.694,4.644,4.644,0,0,1,.667,2.6,4.945,4.945,0,0,1-.9,2.986,5.614,5.614,0,0,1-2.518,1.889,10.2,10.2,0,0,1-3.824.653" transform="translate(-307.388 -61.902)"/>
      <path id="Path_20" data-name="Path 20" d="M508.2,81.9a8.893,8.893,0,0,1-3.973-.82,5.673,5.673,0,0,1-2.558-2.528,10.1,10.1,0,0,1-1.007-4.292q-.028-1.221-.027-2.347t.027-2.347a9.644,9.644,0,0,1,1.048-4.264,6.054,6.054,0,0,1,2.613-2.556,9.364,9.364,0,0,1,7.784,0,6.136,6.136,0,0,1,2.626,2.556,9.283,9.283,0,0,1,1.034,4.264q.055,1.223.054,2.347t-.054,2.347a9.708,9.708,0,0,1-.994,4.292,5.751,5.751,0,0,1-2.572,2.528,8.963,8.963,0,0,1-4,.82m0-2.361a4.7,4.7,0,0,0,3.416-1.278,5.9,5.9,0,0,0,1.429-4.139q.054-1.25.054-2.236t-.054-2.208a7.014,7.014,0,0,0-.694-3.111,4.077,4.077,0,0,0-1.7-1.75,5.211,5.211,0,0,0-2.449-.556,5.086,5.086,0,0,0-2.395.556,4.073,4.073,0,0,0-1.7,1.75,7.255,7.255,0,0,0-.721,3.111q-.028,1.222-.027,2.208t.027,2.236a5.851,5.851,0,0,0,1.442,4.139,4.679,4.679,0,0,0,3.375,1.278" transform="translate(-323.266 -61.902)"/>
      <path id="Path_21" data-name="Path 21" d="M538.1,81.876a.59.59,0,0,1-.463-.181.658.658,0,0,1-.164-.459V63.058a.655.655,0,0,1,.164-.458.59.59,0,0,1,.463-.181h1.442a.558.558,0,0,1,.436.181.655.655,0,0,1,.163.458v16.4H549.2a.592.592,0,0,1,.463.181.7.7,0,0,1,.163.486v1.112a.66.66,0,0,1-.163.459.592.592,0,0,1-.463.181Z" transform="translate(-340.702 -62.148)"/>
      <path id="Path_22" data-name="Path 22" d="M573.189,82.147a8.619,8.619,0,0,1-3.933-.833,5.7,5.7,0,0,1-2.531-2.543,9.568,9.568,0,0,1-.884-4.4V63.085A.7.7,0,0,1,566,62.6a.59.59,0,0,1,.463-.18h1.388a.635.635,0,0,1,.476.18.663.663,0,0,1,.177.486V74.422a5.642,5.642,0,0,0,1.252,4.03,5.14,5.14,0,0,0,6.845,0,5.6,5.6,0,0,0,1.266-4.03V63.085a.663.663,0,0,1,.177-.486.6.6,0,0,1,.45-.18h1.414a.6.6,0,0,1,.45.18.666.666,0,0,1,.177.486V74.368a9.569,9.569,0,0,1-.884,4.4,5.72,5.72,0,0,1-2.518,2.543,8.6,8.6,0,0,1-3.946.833" transform="translate(-354.14 -62.148)"/>
      <path id="Path_23" data-name="Path 23" d="M606.107,81.876a.6.6,0,0,1-.45-.181.631.631,0,0,1-.177-.459V64.892h-5.225a.6.6,0,0,1-.449-.181.624.624,0,0,1-.177-.459V63.086a.661.661,0,0,1,.177-.486.6.6,0,0,1,.449-.181h13.118a.637.637,0,0,1,.477.181.668.668,0,0,1,.177.486v1.168a.613.613,0,0,1-.654.639h-5.2V81.237a.613.613,0,0,1-.653.64Z" transform="translate(-370.139 -62.148)"/>
      <path id="Path_24" data-name="Path 24" d="M633.837,81.876a.59.59,0,0,1-.463-.181.659.659,0,0,1-.163-.459V63.058a.656.656,0,0,1,.163-.458.59.59,0,0,1,.463-.181h1.442a.6.6,0,0,1,.45.181.628.628,0,0,1,.177.458V81.237a.631.631,0,0,1-.177.459.6.6,0,0,1-.45.181Z" transform="translate(-386.134 -62.148)"/>
      <path id="Path_25" data-name="Path 25" d="M653.982,81.9a8.9,8.9,0,0,1-3.973-.82,5.677,5.677,0,0,1-2.558-2.528,10.1,10.1,0,0,1-1.007-4.292q-.027-1.221-.027-2.347t.027-2.347a9.644,9.644,0,0,1,1.048-4.264,6.058,6.058,0,0,1,2.613-2.556,9.365,9.365,0,0,1,7.784,0,6.136,6.136,0,0,1,2.626,2.556,9.29,9.29,0,0,1,1.034,4.264q.054,1.223.054,2.347t-.054,2.347a9.718,9.718,0,0,1-.993,4.292,5.752,5.752,0,0,1-2.572,2.528,8.966,8.966,0,0,1-4,.82m0-2.361a4.706,4.706,0,0,0,3.416-1.278,5.9,5.9,0,0,0,1.429-4.139q.054-1.25.054-2.236t-.054-2.208a7.021,7.021,0,0,0-.694-3.111,4.077,4.077,0,0,0-1.7-1.75,5.212,5.212,0,0,0-2.45-.556,5.089,5.089,0,0,0-2.395.556,4.075,4.075,0,0,0-1.7,1.75,7.254,7.254,0,0,0-.721,3.111q-.028,1.222-.027,2.208t.027,2.236a5.848,5.848,0,0,0,1.443,4.139,4.677,4.677,0,0,0,3.374,1.278" transform="translate(-392.372 -61.902)"/>
      <path id="Path_26" data-name="Path 26" d="M683.874,81.876a.59.59,0,0,1-.463-.181.658.658,0,0,1-.164-.459V63.086a.7.7,0,0,1,.164-.486.59.59,0,0,1,.463-.181h1.251a.694.694,0,0,1,.49.152.7.7,0,0,1,.19.236l9.036,14.177v-13.9a.7.7,0,0,1,.164-.486.591.591,0,0,1,.463-.181h1.306a.636.636,0,0,1,.476.181.665.665,0,0,1,.177.486V81.209a.679.679,0,0,1-.177.473.581.581,0,0,1-.449.195h-1.307a.571.571,0,0,1-.448-.167c-.1-.111-.168-.185-.2-.223L685.834,67.45V81.237a.613.613,0,0,1-.653.64Z" transform="translate(-409.771 -62.148)"/>
      <path id="Path_27" data-name="Path 27" d="M724.59,81.9a9.52,9.52,0,0,1-3.973-.736,6.079,6.079,0,0,1-2.463-1.916,4.532,4.532,0,0,1-.912-2.514.564.564,0,0,1,.177-.4.571.571,0,0,1,.422-.18h1.388a.657.657,0,0,1,.49.167.834.834,0,0,1,.217.389,3.086,3.086,0,0,0,.666,1.319,3.959,3.959,0,0,0,1.5,1.083,6.139,6.139,0,0,0,2.49.431,5.647,5.647,0,0,0,3.443-.847,2.71,2.71,0,0,0,1.1-2.264,2.149,2.149,0,0,0-.585-1.57,5.127,5.127,0,0,0-1.783-1.069q-1.2-.472-3.1-1.028a17.664,17.664,0,0,1-3.293-1.278,4.948,4.948,0,0,1-1.946-1.722,4.87,4.87,0,0,1-.639-2.611,4.711,4.711,0,0,1,.789-2.68,5.412,5.412,0,0,1,2.272-1.875,8.468,8.468,0,0,1,3.606-.695,8.667,8.667,0,0,1,2.953.459,6.3,6.3,0,0,1,2.109,1.222,5.6,5.6,0,0,1,1.279,1.639,4.136,4.136,0,0,1,.463,1.708.617.617,0,0,1-.136.375.511.511,0,0,1-.436.181h-1.442a.822.822,0,0,1-.395-.111.721.721,0,0,1-.313-.417,2.812,2.812,0,0,0-1.252-1.916,4.762,4.762,0,0,0-2.83-.778,5.318,5.318,0,0,0-2.871.695A2.666,2.666,0,0,0,721,68.694a4.213,4.213,0,0,0,1.633,1.1,27.7,27.7,0,0,0,2.912,1,21.4,21.4,0,0,1,3.565,1.292,5.026,5.026,0,0,1,2.055,1.694,4.644,4.644,0,0,1,.667,2.6,4.945,4.945,0,0,1-.9,2.986,5.614,5.614,0,0,1-2.518,1.889,10.2,10.2,0,0,1-3.824.653" transform="translate(-425.831 -61.902)"/>
    </g>
    <g id="Group_136" data-name="Group 136" transform="translate(137.999 4347)">
      <path id="Path_28" data-name="Path 28" d="M1.375,38.739a27.991,27.991,0,0,0,4.944,8.729,28.564,28.564,0,0,0,10.117,7.367,34.236,34.236,0,0,0,16.03,2.551c11.045-.574,28.16-.708,50.261-.857A11.781,11.781,0,0,1,71.05,66.567q-12.192.016-24.385,0h-1.57A19.042,19.042,0,0,0,46.738,68.8C51.947,74.9,59.726,76.1,63.326,76.6c3.616.505,16.586,2.319,27.212-4.213,3.317-2.039,6.8-4.3,11.216-3.546a12.721,12.721,0,0,1,7.037,4.17L97.129,79.183l.092.251a24.658,24.658,0,0,1,10.73.053,9.218,9.218,0,0,1,4.439,2,9.091,9.091,0,0,1,2.61,6.56c-27,.39-47.755-.007-58.022-.556A100.264,100.264,0,0,1,39.1,85.087a61.8,61.8,0,0,1-10.352-3.024c-8.191-3.333-15.587-7.931-21.385-14.6C.085,59.09-1.553,49.321,1.375,38.739" transform="translate(0.001 -8.206)" fill="#f4252d"/>
      <path id="Path_29" data-name="Path 29" d="M113.624,50.728A28.018,28.018,0,0,0,108.679,42a28.574,28.574,0,0,0-10.117-7.367,34.235,34.235,0,0,0-16.03-2.551c-11.045.575-28.159.708-50.261.857A11.784,11.784,0,0,1,43.948,22.9q12.194-.016,24.385,0H69.9a18.852,18.852,0,0,0-1.642-2.235c-5.209-6.095-12.989-7.292-16.589-7.795-3.616-.5-16.586-2.318-27.213,4.213-3.317,2.04-6.8,4.3-11.215,3.546a12.722,12.722,0,0,1-7.037-4.169l11.662-6.173-.092-.251a24.655,24.655,0,0,1-10.73-.054,9.22,9.22,0,0,1-4.439-2A9.1,9.1,0,0,1,0,1.418c27-.39,47.756.008,58.022.557A100.2,100.2,0,0,1,75.9,4.382,61.791,61.791,0,0,1,86.25,7.406c8.191,3.333,15.587,7.93,21.385,14.6,7.279,8.371,8.917,18.141,5.989,28.722" transform="translate(0.001 -1.262)" fill="#f4252d"/>
      <path id="Path_30" data-name="Path 30" d="M115.67,54.239a6,6,0,1,0,6.027,6,6.012,6.012,0,0,0-6.027-6m0,8.475a2.478,2.478,0,1,1,2.49-2.478,2.484,2.484,0,0,1-2.49,2.478" transform="translate(-19.095 -10.871)" fill="#f4252d"/>
    </g>
  </g>
</svg>
