<svg xmlns="http://www.w3.org/2000/svg" xmlns:xlink="http://www.w3.org/1999/xlink" width="841" height="865.914" viewBox="0 0 841 865.914">
  <defs>
    <linearGradient id="linear-gradient" x1="0.5" x2="0.5" y2="1" gradientUnits="objectBoundingBox">
      <stop offset="0" stop-color="#ffece5"/>
      <stop offset="1" stop-color="#fff"/>
    </linearGradient>
  </defs>
  <g id="Group_175" data-name="Group 175" transform="translate(336 -1867.086)">
    <g id="Oval" transform="translate(-336 1867.086)" fill="none" stroke-miterlimit="10">
      <path d="M420.5,827.75c232.236,0,385.648-147.414,385.648-376.336,0-124.461-74.289-108.412-162.4-184.391C569.8,203.254,526.473,0,420.5,0,188.264,0,0,222.492,0,451.414S188.264,827.75,420.5,827.75Z" stroke="none"/>
      <path d="M 420.5 825.3499755859375 C 477.4654541015625 825.3499755859375 530.4223022460938 816.4470825195312 577.8995361328125 798.888671875 C 589.510009765625 794.5947875976562 600.915771484375 789.7256469726562 611.7998657226562 784.4165649414062 C 622.6434326171875 779.127197265625 633.2447509765625 773.2667846679688 643.3094482421875 766.9981079101562 C 653.3506469726562 760.7440185546875 663.1126708984375 753.9248046875 672.32421875 746.7297973632812 C 681.5275268554688 739.5411987304688 690.4151000976562 731.7951049804688 698.740234375 723.7064208984375 C 707.0698852539062 715.6134643554688 715.0479736328125 706.9718627929688 722.4530029296875 698.0219116210938 C 729.8729858398438 689.0537719726562 736.9061889648438 679.5479125976562 743.3575439453125 669.7681274414062 C 749.8311157226562 659.9545288085938 755.8836669921875 649.614990234375 761.3472290039062 639.0365600585938 C 766.8372192382812 628.406982421875 771.872802734375 617.2643432617188 776.3140869140625 605.918212890625 C 794.5181884765625 559.4130859375 803.7484130859375 507.4304504394531 803.7484130859375 451.4141235351562 C 803.7484130859375 441.0769958496094 803.2194213867188 431.4259948730469 802.1762084960938 422.7291259765625 C 801.168212890625 414.3262329101562 799.6396484375 406.4813232421875 797.6331176757812 399.4122314453125 C 793.8760986328125 386.1761169433594 788.3185424804688 374.9984436035156 780.6430053710938 365.2403259277344 C 773.9524536132812 356.7344360351562 765.6008911132812 349.1675415039062 754.3602294921875 341.427001953125 C 744.1513061523438 334.3968811035156 732.49609375 327.875 720.1564331054688 320.9700012207031 C 696.7631225585938 307.8796691894531 670.24853515625 293.0427856445312 642.1826782226562 268.8410034179688 C 635.2991943359375 262.9052124023438 628.5404663085938 255.7051086425781 621.52001953125 246.8289947509766 C 615.2817993164062 238.94189453125 608.9633178710938 229.8827819824219 602.2036743164062 219.1342163085938 C 589.6664428710938 199.1986694335938 577.8789672851562 177.0945587158203 565.3995361328125 153.6924438476562 C 545.6845703125 116.7218856811523 525.2982177734375 78.49277496337891 501.8689880371094 49.85100173950195 C 495.8471069335938 42.48944473266602 489.7544555664062 35.9382209777832 483.7601013183594 30.37922286987305 C 477.3628845214844 24.44655609130859 470.8234558105469 19.40677833557129 464.3233337402344 15.39966678619385 C 457.4700927734375 11.17488861083984 450.4106750488281 7.943333148956299 443.3408813476562 5.794666767120361 C 435.9292297363281 3.542111158370972 428.2444458007812 2.400000095367432 420.5 2.400000095367432 C 406.2827758789062 2.400000095367432 391.9132080078125 3.253777742385864 377.7904357910156 4.937666893005371 C 363.9352111816406 6.589666843414307 349.9797668457031 9.080778121948242 336.3115539550781 12.34177780151367 C 322.8845520019531 15.54522228240967 309.4123229980469 19.56855583190918 296.2689819335938 24.29988861083984 C 283.3374328613281 28.95499992370605 270.4184265136719 34.40555572509766 257.8710021972656 40.5001106262207 C 233.2258911132812 52.47066497802734 209.3309936523438 67.23344421386719 186.8497772216797 84.37833404541016 C 164.8067779541016 101.1890029907227 143.9782257080078 120.3974456787109 124.9425506591797 141.4701080322266 C 106.0823287963867 162.3484497070312 88.89255523681641 185.1543273925781 73.85077667236328 209.2541046142578 C 58.77810668945312 233.4032287597656 45.79855346679688 258.954345703125 35.27244186401367 285.1975708007812 C 24.60699653625488 311.7885437011719 16.40566253662109 339.2309875488281 10.89644050598145 366.7626647949219 C 5.258552074432373 394.9366760253906 2.399996519088745 423.4175415039062 2.399996519088745 451.4141235351562 C 2.399996519088745 465.4655456542969 3.125996589660645 479.4956665039062 4.557885646820068 493.1147766113281 C 5.967774391174316 506.5251159667969 8.097885131835938 519.87841796875 10.88899612426758 532.8038940429688 C 13.63999652862549 545.5436401367188 17.10277366638184 558.1897583007812 21.18110847473145 570.390869140625 C 25.20532989501953 582.4306640625 29.92977523803711 594.339111328125 35.22333145141602 605.78564453125 C 40.45355224609375 617.095458984375 46.36944198608398 628.2359008789062 52.80666351318359 638.8973388671875 C 59.17610931396484 649.4468994140625 66.21343994140625 659.7882080078125 73.72310638427734 669.6340942382812 C 81.16555023193359 679.39208984375 89.25466156005859 688.9031372070312 97.76544189453125 697.9027709960938 C 106.2147750854492 706.8372192382812 115.285888671875 715.4859008789062 124.7268829345703 723.6084594726562 C 134.1164398193359 731.686767578125 144.0998840332031 739.44091796875 154.3997802734375 746.6554565429688 C 164.6629943847656 753.8441162109375 175.4888916015625 760.6710815429688 186.5765533447266 766.946533203125 C 208.7633361816406 779.5040283203125 232.6613311767578 790.2451171875 257.6067810058594 798.8714599609375 C 282.6647644042969 807.5368041992188 309.087890625 814.1744384765625 336.1419982910156 818.6002197265625 C 363.52099609375 823.0789794921875 391.9031066894531 825.3499755859375 420.5 825.3499755859375 M 420.5 827.75 C 188.2642211914062 827.75 -3.47222226082522e-06 680.3361206054688 -3.47222226082522e-06 451.4141235351562 C -3.47222226082522e-06 222.4920043945312 188.2642211914062 0 420.5 0 C 526.4732055664062 0 569.7990112304688 203.2538909912109 643.75 267.0234375 C 731.8594360351562 343.0021057128906 806.1484375 326.953125 806.1484375 451.4141235351562 C 806.1484375 680.3361206054688 652.7357788085938 827.75 420.5 827.75 Z" stroke="none" fill="#5d72e4"/>
    </g>
    <path id="Oval-2" data-name="Oval" d="M420.5,829C652.736,829,841,643.422,841,414.5c0-124.461-129.172-108.412-217.281-184.391C549.768,166.34,526.473,0,420.5,0,188.264,0,0,185.578,0,414.5S188.264,829,420.5,829Z" transform="translate(-336 1904)" fill="url(#linear-gradient)"/>
  </g>
</svg>
