<svg xmlns="http://www.w3.org/2000/svg" xmlns:xlink="http://www.w3.org/1999/xlink" width="290" height="290" viewBox="0 0 290 290">
  <defs>
    <filter id="Rectangle" x="0" y="0" width="290" height="290" filterUnits="userSpaceOnUse">
      <feOffset dy="20" input="SourceAlpha"/>
      <feGaussianBlur stdDeviation="20" result="blur"/>
      <feFlood flood-color="#3d0c00" flood-opacity="0.106"/>
      <feComposite operator="in" in2="blur"/>
      <feComposite in="SourceGraphic"/>
    </filter>
  </defs>
  <g id="Group_169" data-name="Group 169" transform="translate(-875 -1352)">
    <g transform="matrix(1, 0, 0, 1, 875, 1352)" filter="url(#Rectangle)">
      <rect id="Rectangle-2" data-name="Rectangle" width="170" height="170" rx="15" transform="translate(60 40)" fill="#fbd3c9"/>
    </g>
    <path id="Combined_Shape" data-name="Combined Shape" d="M4.5,90A4.26,4.26,0,0,1,0,85.5V4.5A4.26,4.26,0,0,1,4.5,0h81A4.26,4.26,0,0,1,90,4.5v81A4.26,4.26,0,0,1,85.5,90ZM9,81H81V27H9ZM45,13.5a4.5,4.5,0,0,0,9,0A4.26,4.26,0,0,0,49.5,9,4.51,4.51,0,0,0,45,13.5Zm-18,0A4.26,4.26,0,0,0,31.5,18,4.26,4.26,0,0,0,36,13.5,4.26,4.26,0,0,0,31.5,9,4.51,4.51,0,0,0,27,13.5Zm-18,0A4.26,4.26,0,0,0,13.5,18,4.26,4.26,0,0,0,18,13.5,4.26,4.26,0,0,0,13.5,9,4.51,4.51,0,0,0,9,13.5ZM42.75,70.2l-3.6-29.25A4.556,4.556,0,0,1,47.7,37.8l3.6,29.25a4.681,4.681,0,0,1-2.7,5.85,5.952,5.952,0,0,1-1.638.239A4.224,4.224,0,0,1,42.75,70.2Zm17.1-4.05a4.35,4.35,0,0,1,0-6.3L65.7,54l-5.85-5.85a4.455,4.455,0,1,1,6.3-6.3l9,9a4.35,4.35,0,0,1,0,6.3l-9,9a3.633,3.633,0,0,1-2.874,1.426A5.339,5.339,0,0,1,59.85,66.15Zm-36,0-9-9a4.35,4.35,0,0,1,0-6.3l9-9a4.455,4.455,0,1,1,6.3,6.3L24.3,54l5.85,5.85a4.35,4.35,0,0,1,0,6.3,4.841,4.841,0,0,1-3.231,1.426A4.29,4.29,0,0,1,23.85,66.15Z" transform="translate(975 1432)" fill="#a47466"/>
  </g>
</svg>
